<svg width="50" height="48" viewBox="0 0 50 48" fill="none" xmlns="http://www.w3.org/2000/svg">
<rect x="27.9375" y="27.8945" width="9" height="9" rx="1" stroke="#B01736" stroke-width="2"/>
<path d="M9.14844 21.2354V35.1177V46.0001C9.14844 46.5524 9.59615 47.0001 10.1484 47.0001H39.9329C40.4852 47.0001 40.9329 46.5524 40.9329 46.0001V21.2354M23.1484 47.0001V28.8952C23.1484 28.3429 22.7007 27.8952 22.1484 27.8952H15.1484C14.5962 27.8952 14.1484 28.3429 14.1484 28.8952V47.0001" stroke="#B01736" stroke-width="2"/>
<path d="M3.44763 21H46.5524C47.915 21 48.5201 19.3298 47.4597 18.4956L25.6194 1.31241C25.0844 0.891515 24.3193 0.8964 23.79 1.32409L2.52562 18.5073C1.48385 19.3491 2.09448 21 3.44763 21Z" stroke="#B01736" stroke-width="2"/>
</svg>
